<?xml version="1.0" encoding="iso-8859-1"?>
<!-- Generator: Adobe Illustrator 19.0.0, SVG Export Plug-In . SVG Version: 6.00 Build 0)  -->
<svg xmlns="http://www.w3.org/2000/svg" xmlns:xlink="http://www.w3.org/1999/xlink" version="1.1" id="Layer_1" x="0px" y="0px" viewBox="0 0 512 512" style="enable-background:new 0 0 512 512;" xml:space="preserve" width="512px" height="512px">
<g>
	<g>
		<path d="M477.091,81.455H34.909C15.127,81.455,0,96.582,0,116.364v279.273c0,19.782,15.127,34.909,34.909,34.909h442.182    c19.782,0,34.909-15.127,34.909-34.909V116.364C512,96.582,496.873,81.455,477.091,81.455z M488.727,395.636    c0,6.982-4.655,11.636-11.636,11.636H34.909c-6.982,0-11.636-4.655-11.636-11.636V116.364c0-6.982,4.655-11.636,11.636-11.636    h442.182c6.982,0,11.636,4.655,11.636,11.636V395.636z" fill="#282828"/>
	</g>
</g>
<g>
	<g>
		<path d="M146.618,258.327c-4.655-3.491-12.8-2.327-16.291,2.327L48.873,365.382c-3.491,4.655-3.491,12.8,2.327,16.291    c2.327,1.164,4.655,2.327,6.982,2.327c3.491,0,6.982-1.164,9.309-4.655l81.455-104.727    C152.436,269.964,152.436,261.818,146.618,258.327z" fill="#282828"/>
	</g>
</g>
<g>
	<g>
		<path d="M463.127,365.382l-81.455-104.727c-3.491-4.655-11.636-5.818-16.291-2.327c-4.655,3.491-5.818,11.636-2.327,16.291    l81.455,104.727c2.327,3.491,5.818,4.655,9.309,4.655c2.327,0,4.655-1.164,6.982-2.327    C465.455,378.182,466.618,370.036,463.127,365.382z" fill="#282828"/>
	</g>
</g>
<g>
	<g>
		<path d="M463.127,131.491c-4.654-4.655-11.636-4.655-16.291-1.164L278.109,268.8c-12.8,10.473-31.418,10.473-44.218,0    L65.164,130.327c-4.655-4.655-12.8-3.491-16.291,1.164s-3.491,12.8,1.164,16.291l168.727,138.473    c10.473,9.309,23.273,12.8,37.236,12.8s26.764-4.655,37.236-12.8l168.727-138.473    C466.618,143.127,467.782,136.145,463.127,131.491z" fill="#282828"/>
	</g>
</g>
<g>
</g>
<g>
</g>
<g>
</g>
<g>
</g>
<g>
</g>
<g>
</g>
<g>
</g>
<g>
</g>
<g>
</g>
<g>
</g>
<g>
</g>
<g>
</g>
<g>
</g>
<g>
</g>
<g>
</g>
</svg>
