<?xml version="1.0" encoding="iso-8859-1"?>
<!-- Generator: Adobe Illustrator 19.0.0, SVG Export Plug-In . SVG Version: 6.00 Build 0)  -->
<svg version="1.1" id="Capa_1" xmlns="http://www.w3.org/2000/svg" xmlns:xlink="http://www.w3.org/1999/xlink" x="0px" y="0px"
	 viewBox="0 0 508 508" style="enable-background:new 0 0 508 508;" xml:space="preserve">
<g>
	<g>
		<g>
			<path d="M467,49.2H188.5v49.1H467V49.2z M450.6,81.9H204.8V65.5h245.8V81.9z"/>
			<path d="M65.6,98.3c13.6,0,24.6-11,24.6-24.6c0-13.6-11.1-24.5-24.7-24.5C52,49.2,41,60.2,41,73.7S52,98.3,65.6,98.3z M65.5,65.5
				c4.5,0,8.2,3.7,8.2,8.2c0,4.6-3.6,8.2-8.2,8.2c-4.5,0-8.2-3.7-8.2-8.2S61,65.5,65.5,65.5z"/>
			<path d="M139.3,98.4c13.6,0,24.6-11,24.6-24.6c0-13.6-11.1-24.6-24.6-24.6c-13.6,0-24.6,11-24.6,24.6
				C114.7,87.4,125.7,98.4,139.3,98.4z M139.3,65.5c4.5,0,8.2,3.7,8.2,8.2c0,4.6-3.7,8.2-8.2,8.2s-8.2-3.7-8.2-8.2
				S134.8,65.5,139.3,65.5z"/>
			<polygon points="178.1,387.7 109.9,319.5 178.1,251.4 166.5,239.8 86.7,319.5 166.5,399.3 			"/>
			<polygon points="341.7,399.1 421.3,319.5 341.7,240 330.1,251.6 398.1,319.5 330.1,387.5 			"/>
			<path d="M0,0v131.1v16.4V508h508V147.5v-16.4V0H0z M491.6,491.6H16.4V147.5h475.2V491.6z M491.6,131.1H16.4V16.4h475.2V131.1z"/>
			
				<rect x="241.684" y="196.602" transform="matrix(0.8705 0.4922 -0.4922 0.8705 191.6627 -81.0734)" width="16.4" height="254.104"/>
		</g>
	</g>
</g>
<g>
</g>
<g>
</g>
<g>
</g>
<g>
</g>
<g>
</g>
<g>
</g>
<g>
</g>
<g>
</g>
<g>
</g>
<g>
</g>
<g>
</g>
<g>
</g>
<g>
</g>
<g>
</g>
<g>
</g>
</svg>
