<?xml version="1.0" encoding="iso-8859-1"?>
<!-- Generator: Adobe Illustrator 19.0.0, SVG Export Plug-In . SVG Version: 6.00 Build 0)  -->
<svg xmlns="http://www.w3.org/2000/svg" xmlns:xlink="http://www.w3.org/1999/xlink" version="1.1" id="Capa_1" x="0px" y="0px" viewBox="0 0 512 512" style="enable-background:new 0 0 512 512;" xml:space="preserve" width="512px" height="512px">
<g>
	<g>
		<circle cx="209.455" cy="256" r="11.636" fill="#282828"/>
	</g>
</g>
<g>
	<g>
		<circle cx="162.909" cy="256" r="11.636" fill="#282828"/>
	</g>
</g>
<g>
	<g>
		<circle cx="209.455" cy="314.182" r="11.636" fill="#282828"/>
	</g>
</g>
<g>
	<g>
		<circle cx="162.909" cy="314.182" r="11.636" fill="#282828"/>
	</g>
</g>
<g>
	<g>
		<circle cx="116.364" cy="256" r="11.636" fill="#282828"/>
	</g>
</g>
<g>
	<g>
		<circle cx="69.818" cy="256" r="11.636" fill="#282828"/>
	</g>
</g>
<g>
	<g>
		<circle cx="116.364" cy="314.182" r="11.636" fill="#282828"/>
	</g>
</g>
<g>
	<g>
		<circle cx="349.091" cy="256" r="11.636" fill="#282828"/>
	</g>
</g>
<g>
	<g>
		<circle cx="302.545" cy="256" r="11.636" fill="#282828"/>
	</g>
</g>
<g>
	<g>
		<circle cx="349.091" cy="314.182" r="11.636" fill="#282828"/>
	</g>
</g>
<g>
	<g>
		<circle cx="302.545" cy="314.182" r="11.636" fill="#282828"/>
	</g>
</g>
<g>
	<g>
		<circle cx="442.182" cy="256" r="11.636" fill="#282828"/>
	</g>
</g>
<g>
	<g>
		<circle cx="395.636" cy="256" r="11.636" fill="#282828"/>
	</g>
</g>
<g>
	<g>
		<circle cx="442.182" cy="314.182" r="11.636" fill="#282828"/>
	</g>
</g>
<g>
	<g>
		<circle cx="395.636" cy="314.182" r="11.636" fill="#282828"/>
	</g>
</g>
<g>
	<g>
		<circle cx="256" cy="256" r="11.636" fill="#282828"/>
	</g>
</g>
<g>
	<g>
		<circle cx="256" cy="314.182" r="11.636" fill="#282828"/>
	</g>
</g>
<g>
	<g>
		<circle cx="69.818" cy="314.182" r="11.636" fill="#282828"/>
	</g>
</g>
<g>
	<g>
		<circle cx="116.364" cy="372.364" r="11.636" fill="#282828"/>
	</g>
</g>
<g>
	<g>
		<circle cx="442.182" cy="372.364" r="11.636" fill="#282828"/>
	</g>
</g>
<g>
	<g>
		<circle cx="395.636" cy="372.364" r="11.636" fill="#282828"/>
	</g>
</g>
<g>
	<g>
		<circle cx="69.818" cy="372.364" r="11.636" fill="#282828"/>
	</g>
</g>
<g>
	<g>
		<path d="M349.091,360.727H162.909c-6.435,0-11.636,5.213-11.636,11.636S156.474,384,162.909,384h186.182    c6.435,0,11.636-5.213,11.636-11.636S355.526,360.727,349.091,360.727z" fill="#282828"/>
	</g>
</g>
<g>
	<g>
		<path d="M477.091,186.182H302.545c-6.435,0-11.636,5.213-11.636,11.636s5.201,11.636,11.636,11.636h174.545    c6.423,0,11.636,5.225,11.636,11.636v186.182c0,6.412-5.213,11.636-11.636,11.636H34.909c-6.423,0-11.636-5.225-11.636-11.636    V221.091c0-6.412,5.213-11.636,11.636-11.636H256c6.435,0,11.636-5.213,11.636-11.636v-46.545c0-6.412,5.213-11.636,11.636-11.636    h81.455c19.247,0,34.909-15.663,34.909-34.909c0-19.247-15.663-34.909-34.909-34.909H174.545c-6.435,0-11.636,5.213-11.636,11.636    s5.201,11.636,11.636,11.636h186.182c6.423,0,11.636,5.225,11.636,11.636s-5.213,11.636-11.636,11.636h-81.455    c-19.247,0-34.909,15.663-34.909,34.909v34.909H34.909C15.663,186.182,0,201.844,0,221.091v186.182    c0,19.247,15.663,34.909,34.909,34.909h442.182c19.247,0,34.909-15.663,34.909-34.909V221.091    C512,201.844,496.337,186.182,477.091,186.182z" fill="#282828"/>
	</g>
</g>
<g>
</g>
<g>
</g>
<g>
</g>
<g>
</g>
<g>
</g>
<g>
</g>
<g>
</g>
<g>
</g>
<g>
</g>
<g>
</g>
<g>
</g>
<g>
</g>
<g>
</g>
<g>
</g>
<g>
</g>
</svg>
