<?xml version="1.0" encoding="iso-8859-1"?>
<!-- Generator: Adobe Illustrator 19.0.0, SVG Export Plug-In . SVG Version: 6.00 Build 0)  -->
<svg xmlns="http://www.w3.org/2000/svg" xmlns:xlink="http://www.w3.org/1999/xlink" version="1.1" id="Capa_1" x="0px" y="0px" viewBox="0 0 512 512" style="enable-background:new 0 0 512 512;" xml:space="preserve" width="512px" height="512px">
<g>
	<g>
		<path d="M240.954,159.5c4.55-4.55,4.55-11.904,0-16.454c-4.55-4.55-11.904-4.55-16.454,0L29.917,337.629    C10.624,356.922,0,382.569,0,409.856C0,466.176,45.824,512,102.144,512c27.287,0,52.934-10.624,72.227-29.917l2.583-2.583    c40.832-40.832,41.647-106.449,1.827-146.281c-13.231-13.231-29.882-22.47-48.14-26.717c-6.26-1.524-12.509,2.42-13.964,8.692    c-1.466,6.249,2.432,12.509,8.692,13.964c14.022,3.27,26.81,10.368,36.969,20.515c30.755,30.767,29.917,81.617-1.827,113.373    l-2.583,2.583c-14.906,14.895-34.711,23.098-55.785,23.098c-43.485,0-78.871-35.386-78.871-78.871    c0-21.073,8.204-40.879,23.098-55.773L240.954,159.5z" fill="#8e8e8e"/>
	</g>
</g>
<g>
	<g>
		<path d="M409.856,0c-27.287,0-52.934,10.624-72.227,29.917l-78.22,78.22c-4.55,4.55-4.55,11.904,0,16.454    c27.974,27.985,65.885,38.551,97.513,30.487c-7.249,28.474,0.617,62.01,22.691,88.855L224.5,399.046    c-4.55,4.55-4.55,11.904,0,16.454c2.269,2.269,5.248,3.409,8.227,3.409c2.979,0,5.958-1.14,8.227-3.409l241.129-241.129    C501.376,155.078,512,129.431,512,102.144C512,45.824,466.176,0,409.856,0z M465.629,157.917l-69.446,69.446    c-23.343-29.731-25.46-68.457-3.375-90.554c0.093-0.093,0.116-0.209,0.198-0.291c4.364,1.967,9.169,3.119,14.266,3.119    c19.247,0,34.909-15.663,34.909-34.909c0-19.247-15.663-34.909-34.909-34.909c-19.247,0-34.909,15.663-34.909,34.909    c0,5.097,1.152,9.903,3.13,14.266c-0.093,0.081-0.209,0.105-0.291,0.198c-22.097,22.086-60.881,20.026-90.612-3.316l69.504-69.504    c14.883-14.895,34.688-23.098,55.761-23.098c43.485,0,78.871,35.386,78.871,78.871    C488.727,123.217,480.524,143.023,465.629,157.917z M395.636,104.727c0-6.423,5.213-11.636,11.636-11.636    c6.423,0,11.636,5.213,11.636,11.636s-5.213,11.636-11.636,11.636C400.849,116.364,395.636,111.151,395.636,104.727z" fill="#8e8e8e"/>
	</g>
</g>
<g>
</g>
<g>
</g>
<g>
</g>
<g>
</g>
<g>
</g>
<g>
</g>
<g>
</g>
<g>
</g>
<g>
</g>
<g>
</g>
<g>
</g>
<g>
</g>
<g>
</g>
<g>
</g>
<g>
</g>
</svg>
