<?xml version="1.0" encoding="iso-8859-1"?>
<!-- Generator: Adobe Illustrator 19.0.0, SVG Export Plug-In . SVG Version: 6.00 Build 0)  -->
<svg xmlns="http://www.w3.org/2000/svg" xmlns:xlink="http://www.w3.org/1999/xlink" version="1.1" id="Capa_1" x="0px" y="0px" viewBox="0 0 513.164 513.164" style="enable-background:new 0 0 513.164 513.164;" xml:space="preserve" width="512px" height="512px">
<g>
	<g>
		<circle cx="338.049" cy="349.099" r="11.637" fill="#282828"/>
	</g>
</g>
<g>
	<g>
		<circle cx="303.146" cy="418.911" r="11.637" fill="#282828"/>
	</g>
</g>
<g>
	<g>
		<circle cx="198.413" cy="395.598" r="11.637" fill="#282828"/>
	</g>
</g>
<g>
	<g>
		<circle cx="349.682" cy="395.655" r="11.637" fill="#282828"/>
	</g>
</g>
<g>
	<g>
		<circle cx="221.732" cy="349.099" r="11.637" fill="#282828"/>
	</g>
</g>
<g>
	<g>
		<path d="M420.655,294.4c-3.491-4.655-8.145-5.818-11.636-4.655c-23.273,4.655-46.545-2.327-62.836-18.618    c-4.655-4.655-11.636-4.655-16.291,0c-8.145,6.982-17.455,12.8-26.764,16.291l25.6-86.109c2.327-5.818-1.164-12.8-8.145-13.964    c-5.818-2.327-12.8,1.164-13.964,8.145l-29.091,95.418c-17.455,0-34.909-6.982-47.709-19.782c-4.655-4.655-11.636-4.655-16.291,0    c-5.818,5.818-12.8,10.473-19.782,13.964c-5.818,2.327-8.145,9.309-5.818,15.127s9.309,8.145,15.127,5.818    c6.982-3.491,12.8-6.982,18.618-11.636c18.618,13.964,40.727,19.782,62.836,19.782c1.164,0,1.164,0,2.327,0s2.327,0,4.655-1.164    c17.455-2.327,33.745-8.145,47.709-18.618c17.455,12.8,38.4,19.782,60.509,19.782l-12.8,164.073    c0,5.818-5.818,10.473-11.636,10.473H185.6c-5.818,0-11.636-4.655-11.636-10.473l-22.109-280.436v-34.909h57.018    c-3.491,18.618-13.964,34.909-29.091,45.382c-5.818,3.491-6.982,10.473-2.327,16.291c3.491,5.818,10.473,6.982,16.291,2.327    c24.436-17.455,39.564-46.545,39.564-76.8c0-6.982-4.655-11.636-11.636-11.636h-81.455c-6.982,0-11.636,4.655-11.636,11.636    v47.709l1.164,22.109C99.491,215.273,76.218,192,70.4,162.909h34.909c6.982,0,11.636-4.655,11.636-11.636    c0-6.982-4.655-11.636-11.636-11.636H71.564c4.655-29.091,27.927-52.364,57.018-57.018v33.745c0,6.982,4.655,11.636,11.636,11.636    s11.636-4.655,11.636-11.636V82.618c18.618,3.491,34.909,12.8,45.382,29.091c3.491,5.818,10.473,6.982,16.291,2.327    c5.818-3.491,6.982-10.473,2.327-16.291c-16.291-24.436-45.382-39.564-75.636-39.564c-51.2,0-93.091,41.891-93.091,93.091    c0,48.873,37.236,88.436,84.945,93.091l18.618,236.218c1.164,18.618,16.291,32.582,34.909,32.582h189.673    c18.618,0,33.745-13.964,34.909-32.582l13.964-175.709v-1.164C424.145,300.218,422.982,296.727,420.655,294.4z" fill="#282828"/>
	</g>
</g>
<g>
	<g>
		<path d="M462.545,61.673L410.182,9.309C404.364,3.491,396.218,0,388.073,0c-13.964,0-26.764,9.309-30.255,22.109l-34.909,117.527    h-54.691c-6.982,0-11.636,4.655-11.636,11.636c0,6.982,4.655,11.636,11.636,11.636h62.836h76.8v33.745l-4.655,58.182    c0,6.982,4.655,11.636,10.473,12.8h1.164c5.818,0,11.636-4.655,11.636-10.473l4.655-59.345v-46.545    c0-6.982-4.655-11.636-11.636-11.636h-72.146l32.582-110.545c1.164-5.818,9.309-8.145,13.964-3.491l52.364,52.364    c4.655,4.655,11.636,4.655,16.291,0C467.2,73.309,467.2,66.327,462.545,61.673z" fill="#282828"/>
	</g>
</g>
<g>
	<g>
		<path d="M276.364,338.618c-5.818-2.327-12.8,1.164-13.964,8.145l-27.927,93.091c-2.327,5.818,1.164,12.8,8.146,13.964    c0,0,1.164,0,2.327,0c4.655,0,9.309-3.491,11.636-8.145l27.927-93.091C286.836,346.764,283.345,339.782,276.364,338.618z" fill="#282828"/>
	</g>
</g>
<g>
</g>
<g>
</g>
<g>
</g>
<g>
</g>
<g>
</g>
<g>
</g>
<g>
</g>
<g>
</g>
<g>
</g>
<g>
</g>
<g>
</g>
<g>
</g>
<g>
</g>
<g>
</g>
<g>
</g>
</svg>
